<svg xmlns="http://www.w3.org/2000/svg" font-family="Consolas,monospace" width="920px" height="490px" font-size="14px">
<rect width="920px" height="490px" fill="#161b22" rx="10"/>
<path transform="translate(15,20) scale(3.250)" fill="#c9d1d9" d="M52 19h7v1h-7zM50 20h1v1h-1zM59 20h1v1h-1zM61 20h1v1h-1zM48 21h1v1h-1zM51 21h1v1h-1zM53 21h1v1h-1zM55 21h1v1h-1zM57 21h1v1h-1zM60 21h1v1h-1zM62 21h2v1h-2zM46 22h1v1h-1zM48 22h1v1h-1zM58 22h1v1h-1zM64 22h1v1h-1zM44 23h1v1h-1zM46 23h1v1h-1zM64 23h1v1h-1zM66 23h1v1h-1zM43 24h1v1h-1zM59 24h1v1h-1zM62 24h1v1h-1zM66 24h2v1h-2zM41 25h1v1h-1zM40 26h1v1h-1zM42 26h1v1h-1zM61 26h1v1h-1zM64 26h1v1h-1zM66 26h2v1h-2zM68 27h1v1h-1zM39 28h1v1h-1zM48 28h1v1h-1zM50 28h1v1h-1zM52 28h1v1h-1zM54 28h1v1h-1zM56 28h1v1h-1zM62 28h1v1h-1zM66 28h1v1h-1zM68 28h1v1h-1zM38 29h1v1h-1zM45 29h16v1h-16zM70 29h1v1h-1zM38 30h1v1h-1zM42 30h1v1h-1zM44 30h1v1h-1zM46 30h2v1h-2zM59 30h5v1h-5zM67 30h1v1h-1zM69 30h1v1h-1zM37 31h1v1h-1zM40 31h1v1h-1zM43 31h3v1h-3zM63 31h2v1h-2zM70 31h1v1h-1zM42 32h2v1h-2zM65 32h2v1h-2zM69 32h2v1h-2zM36 33h1v1h-1zM38 33h1v1h-1zM41 33h2v1h-2zM50 33h1v1h-1zM66 33h1v1h-1zM41 34h1v1h-1zM43 34h2v1h-2zM48 34h3v1h-3zM66 34h1v1h-1zM69 34h1v1h-1zM36 35h1v1h-1zM39 35h1v1h-1zM41 35h9v1h-9zM66 35h2v1h-2zM37 36h1v1h-1zM41 36h8v1h-8zM64 36h4v1h-4zM69 36h1v1h-1zM36 37h1v1h-1zM39 37h1v1h-1zM42 37h2v1h-2zM45 37h3v1h-3zM65 37h3v1h-3zM36 38h1v1h-1zM41 38h14v1h-14zM60 38h8v1h-8zM69 38h1v1h-1zM37 39h1v1h-1zM39 39h1v1h-1zM42 39h2v1h-2zM45 39h2v1h-2zM48 39h1v1h-1zM51 39h1v1h-1zM54 39h5v1h-5zM65 39h1v1h-1zM67 39h1v1h-1zM41 40h4v1h-4zM46 40h1v1h-1zM49 40h1v1h-1zM53 40h1v1h-1zM56 40h2v1h-2zM59 40h1v1h-1zM61 40h1v1h-1zM63 40h2v1h-2zM66 40h2v1h-2zM69 40h1v1h-1zM37 41h1v1h-1zM41 41h2v1h-2zM44 41h2v1h-2zM47 41h1v1h-1zM49 41h1v1h-1zM51 41h1v1h-1zM54 41h3v1h-3zM58 41h1v1h-1zM61 41h1v1h-1zM63 41h5v1h-5zM69 41h1v1h-1zM37 42h1v1h-1zM41 42h5v1h-5zM47 42h2v1h-2zM52 42h1v1h-1zM55 42h2v1h-2zM58 42h1v1h-1zM60 42h1v1h-1zM63 42h1v1h-1zM65 42h1v1h-1zM67 42h3v1h-3zM37 43h1v1h-1zM40 43h1v1h-1zM42 43h2v1h-2zM45 43h1v1h-1zM47 43h1v1h-1zM50 43h1v1h-1zM52 43h1v1h-1zM54 43h1v1h-1zM56 43h3v1h-3zM60 43h1v1h-1zM63 43h1v1h-1zM65 43h3v1h-3zM69 43h1v1h-1zM41 44h2v1h-2zM44 44h1v1h-1zM46 44h1v1h-1zM48 44h1v1h-1zM50 44h1v1h-1zM52 44h1v1h-1zM54 44h1v1h-1zM59 44h1v1h-1zM61 44h9v1h-9zM38 45h1v1h-1zM40 45h1v1h-1zM42 45h8v1h-8zM51 45h4v1h-4zM60 45h2v1h-2zM63 45h2v1h-2zM66 45h2v1h-2zM69 45h1v1h-1zM38 46h1v1h-1zM41 46h2v1h-2zM44 46h1v1h-1zM46 46h1v1h-1zM48 46h1v1h-1zM50 46h5v1h-5zM59 46h5v1h-5zM66 46h4v1h-4zM39 47h2v1h-2zM42 47h10v1h-10zM53 47h1v1h-1zM55 47h1v1h-1zM60 47h1v1h-1zM62 47h6v1h-6zM69 47h1v1h-1zM38 48h18v1h-18zM60 48h2v1h-2zM63 48h7v1h-7zM39 49h10v1h-10zM50 49h1v1h-1zM52 49h1v1h-1zM54 49h1v1h-1zM56 49h4v1h-4zM62 49h3v1h-3zM66 49h3v1h-3zM38 50h2v1h-2zM41 50h6v1h-6zM49 50h3v1h-3zM53 50h1v1h-1zM55 50h1v1h-1zM60 50h1v1h-1zM64 50h5v1h-5zM38 51h3v1h-3zM43 51h5v1h-5zM50 51h2v1h-2zM53 51h2v1h-2zM56 51h1v1h-1zM58 51h1v1h-1zM60 51h9v1h-9zM40 52h5v1h-5zM46 52h4v1h-4zM51 52h3v1h-3zM55 52h1v1h-1zM58 52h1v1h-1zM60 52h2v1h-2zM63 52h1v1h-1zM65 52h4v1h-4zM39 53h2v1h-2zM42 53h1v1h-1zM44 53h4v1h-4zM49 53h4v1h-4zM54 53h1v1h-1zM56 53h1v1h-1zM59 53h1v1h-1zM61 53h6v1h-6zM68 53h1v1h-1zM39 54h4v1h-4zM44 54h7v1h-7zM52 54h1v1h-1zM54 54h1v1h-1zM56 54h5v1h-5zM63 54h5v1h-5zM40 55h5v1h-5zM46 55h2v1h-2zM49 55h2v1h-2zM53 55h1v1h-1zM55 55h1v1h-1zM60 55h1v1h-1zM62 55h1v1h-1zM64 55h2v1h-2zM67 55h1v1h-1zM41 56h1v1h-1zM44 56h7v1h-7zM54 56h8v1h-8zM63 56h5v1h-5zM43 57h2v1h-2zM46 57h1v1h-1zM48 57h2v1h-2zM51 57h4v1h-4zM56 57h1v1h-1zM58 57h7v1h-7zM67 57h1v1h-1zM43 58h1v1h-1zM45 58h3v1h-3zM49 58h2v1h-2zM52 58h2v1h-2zM55 58h1v1h-1zM60 58h1v1h-1zM62 58h4v1h-4zM67 58h1v1h-1zM43 59h3v1h-3zM47 59h2v1h-2zM50 59h3v1h-3zM54 59h1v1h-1zM56 59h1v1h-1zM58 59h6v1h-6zM65 59h2v1h-2zM45 60h2v1h-2zM48 60h3v1h-3zM52 60h5v1h-5zM62 60h3v1h-3zM66 60h1v1h-1zM44 61h1v1h-1zM47 61h1v1h-1zM49 61h1v1h-1zM51 61h2v1h-2zM55 61h2v1h-2zM59 61h4v1h-4zM64 61h1v1h-1zM44 62h2v1h-2zM47 62h1v1h-1zM49 62h2v1h-2zM52 62h3v1h-3zM56 62h3v1h-3zM60 62h1v1h-1zM62 62h1v1h-1zM64 62h1v1h-1zM45 63h2v1h-2zM51 63h1v1h-1zM55 63h1v1h-1zM58 63h1v1h-1zM61 63h1v1h-1zM64 63h1v1h-1zM27 64h4v1h-4zM32 64h1v1h-1zM45 64h3v1h-3zM49 64h1v1h-1zM63 64h1v1h-1zM25 65h10v1h-10zM45 65h4v1h-4zM62 65h2v1h-2zM23 66h13v1h-13zM44 66h3v1h-3zM48 66h2v1h-2zM51 66h1v1h-1zM60 66h1v1h-1zM62 66h1v1h-1zM21 67h16v1h-16zM44 67h4v1h-4zM49 67h2v1h-2zM52 67h1v1h-1zM55 67h1v1h-1zM58 67h1v1h-1zM61 67h2v1h-2zM20 68h17v1h-17zM44 68h5v1h-5zM50 68h2v1h-2zM53 68h1v1h-1zM56 68h1v1h-1zM59 68h4v1h-4zM18 69h19v1h-19zM39 69h8v1h-8zM48 69h7v1h-7zM56 69h1v1h-1zM58 69h1v1h-1zM60 69h3v1h-3zM17 70h20v1h-20zM38 70h1v1h-1zM42 70h7v1h-7zM50 70h1v1h-1zM52 70h2v1h-2zM55 70h1v1h-1zM57 70h1v1h-1zM59 70h4v1h-4zM16 71h21v1h-21zM38 71h1v1h-1zM42 71h4v1h-4zM47 71h5v1h-5zM53 71h2v1h-2zM56 71h1v1h-1zM58 71h4v1h-4zM63 71h1v1h-1zM15 72h22v1h-22zM38 72h1v1h-1zM44 72h4v1h-4zM49 72h1v1h-1zM51 72h2v1h-2zM54 72h1v1h-1zM56 72h1v1h-1zM58 72h3v1h-3zM64 72h1v1h-1zM13 73h16v1h-16zM30 73h7v1h-7zM45 73h2v1h-2zM48 73h3v1h-3zM52 73h2v1h-2zM55 73h1v1h-1zM57 73h4v1h-4zM63 73h1v1h-1zM13 74h11v1h-11zM25 74h10v1h-10zM36 74h1v1h-1zM38 74h1v1h-1zM46 74h3v1h-3zM50 74h2v1h-2zM53 74h1v1h-1zM55 74h3v1h-3zM59 74h2v1h-2zM62 74h1v1h-1zM66 74h1v1h-1zM11 75h11v1h-11zM23 75h11v1h-11zM35 75h1v1h-1zM41 75h1v1h-1zM47 75h1v1h-1zM49 75h1v1h-1zM51 75h1v1h-1zM53 75h2v1h-2zM56 75h8v1h-8zM11 76h23v1h-23zM39 76h1v1h-1zM48 76h2v1h-2zM51 76h2v1h-2zM54 76h2v1h-2zM57 76h6v1h-6zM10 77h10v1h-10zM21 77h12v1h-12zM35 77h1v1h-1zM50 77h1v1h-1zM52 77h2v1h-2zM55 77h9v1h-9zM67 77h1v1h-1zM9 78h22v1h-22zM37 78h1v1h-1zM44 78h1v1h-1zM50 78h2v1h-2zM53 78h3v1h-3zM57 78h5v1h-5zM63 78h1v1h-1zM68 78h2v1h-2zM8 79h20v1h-20zM30 79h1v1h-1zM33 79h1v1h-1zM41 79h1v1h-1zM52 79h3v1h-3zM56 79h4v1h-4zM61 79h2v1h-2zM70 79h2v1h-2zM7 80h11v1h-11zM19 80h8v1h-8zM28 80h1v1h-1zM35 80h1v1h-1zM38 80h1v1h-1zM48 80h1v1h-1zM53 80h10v1h-10zM66 80h1v1h-1zM73 80h1v1h-1zM7 81h19v1h-19zM27 81h1v1h-1zM31 81h1v1h-1zM44 81h1v1h-1zM55 81h2v1h-2zM58 81h5v1h-5zM74 81h1v1h-1zM6 82h19v1h-19zM29 82h1v1h-1zM33 82h1v1h-1zM36 82h1v1h-1zM39 82h1v1h-1zM42 82h1v1h-1zM56 82h7v1h-7zM65 82h1v1h-1zM68 82h1v1h-1zM71 82h1v1h-1zM76 82h2v1h-2zM6 83h9v1h-9zM16 83h7v1h-7zM24 83h1v1h-1zM27 83h1v1h-1zM50 83h1v1h-1zM53 83h1v1h-1zM58 83h1v1h-1zM60 83h1v1h-1zM79 83h1v1h-1zM5 84h16v1h-16zM22 84h1v1h-1zM30 84h1v1h-1zM33 84h1v1h-1zM37 84h1v1h-1zM40 84h1v1h-1zM45 84h1v1h-1zM48 84h1v1h-1zM59 84h1v1h-1zM62 84h1v1h-1zM81 84h1v1h-1zM4 85h16v1h-16zM21 85h1v1h-1zM24 85h1v1h-1zM26 85h1v1h-1zM28 85h1v1h-1zM35 85h1v1h-1zM43 85h1v1h-1zM57 85h1v1h-1zM61 85h1v1h-1zM68 85h1v1h-1zM72 85h1v1h-1zM77 85h1v1h-1zM83 85h1v1h-1zM4 86h15v1h-15zM31 86h1v1h-1zM39 86h1v1h-1zM55 86h1v1h-1zM79 86h1v1h-1zM85 86h1v1h-1zM3 87h10v1h-10zM14 87h4v1h-4zM21 87h1v1h-1zM24 87h1v1h-1zM27 87h1v1h-1zM33 87h1v1h-1zM37 87h1v1h-1zM41 87h1v1h-1zM49 87h1v1h-1zM52 87h1v1h-1zM71 87h1v1h-1zM81 87h1v1h-1zM86 87h1v1h-1zM3 88h14v1h-14zM29 88h1v1h-1zM64 88h1v1h-1zM67 88h1v1h-1zM74 88h1v1h-1zM78 88h1v1h-1zM84 88h1v1h-1zM87 88h1v1h-1zM3 89h14v1h-14zM18 89h1v1h-1zM20 89h1v1h-1zM22 89h1v1h-1zM25 89h1v1h-1zM31 89h1v1h-1zM34 89h1v1h-1zM41 89h1v1h-1zM44 89h1v1h-1zM62 89h1v1h-1zM69 89h1v1h-1zM72 89h1v1h-1zM82 89h1v1h-1zM2 90h15v1h-15zM37 90h1v1h-1zM39 90h1v1h-1zM66 90h1v1h-1zM76 90h1v1h-1zM80 90h1v1h-1zM86 90h1v1h-1zM88 90h1v1h-1zM1 91h15v1h-15zM20 91h1v1h-1zM23 91h1v1h-1zM26 91h1v1h-1zM29 91h1v1h-1zM35 91h1v1h-1zM43 91h1v1h-1zM46 91h1v1h-1zM52 91h1v1h-1zM55 91h1v1h-1zM59 91h1v1h-1zM64 91h1v1h-1zM70 91h1v1h-1zM74 91h1v1h-1zM89 91h1v1h-1zM1 92h10v1h-10zM12 92h4v1h-4zM18 92h1v1h-1zM33 92h1v1h-1zM41 92h1v1h-1zM49 92h1v1h-1zM68 92h1v1h-1zM78 92h1v1h-1zM83 92h1v1h-1zM89 92h1v1h-1zM0 93h16v1h-16zM22 93h1v1h-1zM27 93h1v1h-1zM39 93h1v1h-1zM45 93h1v1h-1zM62 93h1v1h-1zM72 93h1v1h-1zM75 93h1v1h-1zM81 93h1v1h-1zM86 93h1v1h-1zM90 93h1v1h-1zM1 94h14v1h-14zM17 94h1v1h-1zM20 94h1v1h-1zM37 94h1v1h-1zM43 94h1v1h-1zM48 94h1v1h-1zM52 94h1v1h-1zM56 94h1v1h-1zM59 94h1v1h-1zM66 94h1v1h-1zM70 94h1v1h-1zM88 94h1v1h-1zM90 94h1v1h-1zM1 95h15v1h-15zM24 95h1v1h-1zM29 95h1v1h-1zM34 95h1v1h-1zM50 95h1v1h-1zM64 95h1v1h-1zM68 95h1v1h-1zM73 95h1v1h-1zM76 95h1v1h-1zM78 95h1v1h-1zM81 95h1v1h-1zM90 95h1v1h-1zM0 96h15v1h-15zM18 96h1v1h-1zM22 96h1v1h-1zM40 96h1v1h-1zM43 96h1v1h-1zM46 96h1v1h-1zM62 96h1v1h-1zM71 96h1v1h-1zM84 96h1v1h-1zM88 96h1v1h-1zM91 96h1v1h-1zM0 97h14v1h-14zM15 97h1v1h-1zM31 97h1v1h-1zM48 97h1v1h-1zM53 97h1v1h-1zM56 97h1v1h-1zM59 97h1v1h-1zM68 97h1v1h-1zM74 97h1v1h-1zM78 97h1v1h-1zM82 97h1v1h-1zM0 98h10v1h-10zM11 98h3v1h-3zM17 98h1v1h-1zM20 98h1v1h-1zM24 98h1v1h-1zM27 98h1v1h-1zM35 98h1v1h-1zM39 98h1v1h-1zM42 98h1v1h-1zM45 98h1v1h-1zM51 98h1v1h-1zM65 98h1v1h-1zM72 98h1v1h-1zM76 98h1v1h-1zM87 98h1v1h-1zM90 98h1v1h-1zM92 98h1v1h-1zM0 99h14v1h-14zM15 99h1v1h-1zM22 99h1v1h-1zM49 99h1v1h-1zM63 99h1v1h-1zM69 99h1v1h-1zM80 99h1v1h-1zM92 99h1v1h-1zM0 100h14v1h-14zM26 100h1v1h-1zM37 100h1v1h-1zM43 100h1v1h-1zM46 100h1v1h-1zM54 100h1v1h-1zM60 100h1v1h-1zM67 100h1v1h-1zM72 100h1v1h-1zM75 100h1v1h-1zM78 100h1v1h-1zM84 100h1v1h-1zM88 100h1v1h-1zM92 100h1v1h-1zM0 101h14v1h-14zM15 101h1v1h-1zM18 101h1v1h-1zM24 101h1v1h-1zM29 101h1v1h-1zM41 101h1v1h-1zM52 101h1v1h-1zM58 101h1v1h-1zM90 101h1v1h-1zM0 102h14v1h-14zM20 102h1v1h-1zM45 102h1v1h-1zM48 102h1v1h-1zM65 102h1v1h-1zM69 102h1v1h-1zM72 102h1v1h-1zM76 102h1v1h-1zM80 102h1v1h-1zM86 102h1v1h-1zM92 102h1v1h-1zM0 103h14v1h-14zM15 103h1v1h-1zM27 103h1v1h-1zM50 103h1v1h-1zM54 103h1v1h-1zM74 103h1v1h-1zM78 103h1v1h-1zM93 103h1v1h-1zM0 104h11v1h-11zM12 104h2v1h-2zM18 104h1v1h-1zM22 104h1v1h-1zM31 104h1v1h-1zM37 104h1v1h-1zM41 104h1v1h-1zM46 104h1v1h-1zM62 104h1v1h-1zM66 104h1v1h-1zM70 104h1v1h-1zM83 104h1v1h-1zM88 104h1v1h-1zM91 104h1v1h-1zM0 105h14v1h-14zM15 105h1v1h-1zM25 105h1v1h-1zM29 105h1v1h-1zM44 105h1v1h-1zM51 105h1v1h-1zM55 105h1v1h-1zM58 105h1v1h-1zM68 105h1v1h-1zM73 105h1v1h-1zM80 105h1v1h-1zM93 105h2v1h-2zM0 106h14v1h-14zM19 106h1v1h-1zM23 106h1v1h-1zM48 106h1v1h-1zM64 106h1v1h-1zM76 106h1v1h-1zM89 106h1v1h-1zM94 106h1v1h-1zM0 107h16v1h-16zM54 107h1v1h-1zM70 107h1v1h-1zM74 107h1v1h-1zM79 107h1v1h-1zM87 107h1v1h-1zM94 107h1v1h-1zM0 108h15v1h-15zM17 108h1v1h-1zM21 108h1v1h-1zM33 108h1v1h-1zM50 108h1v1h-1zM57 108h1v1h-1zM68 108h1v1h-1zM91 108h1v1h-1zM94 108h1v1h-1zM0 109h10v1h-10zM11 109h5v1h-5zM25 109h1v1h-1zM28 109h1v1h-1zM45 109h1v1h-1zM48 109h1v1h-1zM55 109h1v1h-1zM63 109h1v1h-1zM72 109h1v1h-1zM77 109h1v1h-1zM95 109h1v1h-1zM0 110h14v1h-14zM18 110h1v1h-1zM42 110h1v1h-1zM52 110h1v1h-1zM61 110h1v1h-1zM85 110h1v1h-1zM88 110h1v1h-1zM92 110h1v1h-1zM101 110h1v1h-1zM103 110h3v1h-3zM0 111h14v1h-14zM15 111h1v1h-1zM20 111h1v1h-1zM23 111h1v1h-1zM35 111h1v1h-1zM59 111h1v1h-1zM66 111h1v1h-1zM75 111h1v1h-1zM80 111h1v1h-1zM90 111h1v1h-1zM95 111h2v1h-2zM99 111h9v1h-9zM110 111h1v1h-1zM0 112h14v1h-14zM15 112h1v1h-1zM28 112h1v1h-1zM31 112h1v1h-1zM56 112h1v1h-1zM70 112h1v1h-1zM78 112h1v1h-1zM98 112h14v1h-14zM0 113h15v1h-15zM17 113h1v1h-1zM20 113h1v1h-1zM49 113h1v1h-1zM54 113h1v1h-1zM73 113h1v1h-1zM87 113h1v1h-1zM92 113h1v1h-1zM94 113h1v1h-1zM96 113h2v1h-2zM99 113h13v1h-13zM0 114h16v1h-16zM23 114h1v1h-1zM26 114h1v1h-1zM32 114h1v1h-1zM52 114h1v1h-1zM68 114h1v1h-1zM89 114h4v1h-4zM94 114h1v1h-1zM97 114h1v1h-1zM99 114h15v1h-15zM0 115h9v1h-9zM10 115h6v1h-6zM18 115h1v1h-1zM21 115h1v1h-1zM37 115h1v1h-1zM58 115h1v1h-1zM64 115h1v1h-1zM76 115h1v1h-1zM85 115h1v1h-1zM88 115h1v1h-1zM93 115h2v1h-2zM97 115h17v1h-17zM0 116h16v1h-16zM31 116h1v1h-1zM34 116h1v1h-1zM74 116h1v1h-1zM80 116h1v1h-1zM87 116h1v1h-1zM91 116h1v1h-1zM97 116h18v1h-18zM0 117h16v1h-16zM17 117h1v1h-1zM22 117h1v1h-1zM25 117h1v1h-1zM28 117h1v1h-1zM44 117h1v1h-1zM49 117h1v1h-1zM61 117h1v1h-1zM70 117h1v1h-1zM86 117h1v1h-1zM90 117h1v1h-1zM95 117h1v1h-1zM97 117h19v1h-19zM0 118h15v1h-15zM19 118h1v1h-1zM35 118h1v1h-1zM38 118h1v1h-1zM55 118h1v1h-1zM58 118h1v1h-1zM66 118h1v1h-1zM85 118h3v1h-3zM89 118h1v1h-1zM93 118h2v1h-2zM97 118h1v1h-1zM99 118h18v1h-18zM0 119h12v1h-12zM13 119h4v1h-4zM21 119h1v1h-1zM24 119h1v1h-1zM27 119h1v1h-1zM30 119h1v1h-1zM33 119h1v1h-1zM77 119h1v1h-1zM85 119h4v1h-4zM91 119h2v1h-2zM97 119h20v1h-20zM0 120h9v1h-9zM10 120h6v1h-6zM19 120h1v1h-1zM69 120h1v1h-1zM73 120h1v1h-1zM84 120h4v1h-4zM90 120h1v1h-1zM96 120h1v1h-1zM98 120h1v1h-1zM100 120h3v1h-3zM104 120h3v1h-3zM108 120h10v1h-10zM0 121h17v1h-17zM37 121h1v1h-1zM54 121h1v1h-1zM59 121h1v1h-1zM63 121h1v1h-1zM84 121h3v1h-3zM89 121h1v1h-1zM92 121h19v1h-19zM112 121h7v1h-7zM0 122h16v1h-16zM24 122h1v1h-1zM27 122h1v1h-1zM30 122h1v1h-1zM33 122h1v1h-1zM45 122h1v1h-1zM67 122h1v1h-1zM76 122h1v1h-1zM80 122h1v1h-1zM83 122h4v1h-4zM88 122h1v1h-1zM92 122h2v1h-2zM95 122h1v1h-1zM100 122h19v1h-19zM0 123h17v1h-17zM22 123h1v1h-1zM36 123h1v1h-1zM39 123h1v1h-1zM57 123h1v1h-1zM61 123h1v1h-1zM73 123h1v1h-1zM83 123h3v1h-3zM87 123h1v1h-1zM91 123h1v1h-1zM93 123h1v1h-1zM100 123h20v1h-20zM0 124h8v1h-8zM9 124h7v1h-7zM18 124h1v1h-1zM28 124h1v1h-1zM31 124h1v1h-1zM34 124h1v1h-1zM37 124h1v1h-1zM71 124h1v1h-1zM82 124h4v1h-4zM90 124h1v1h-1zM92 124h1v1h-1zM95 124h4v1h-4zM100 124h1v1h-1zM102 124h4v1h-4zM107 124h13v1h-13zM0 125h13v1h-13zM14 125h3v1h-3zM21 125h1v1h-1zM25 125h1v1h-1zM30 125h1v1h-1zM32 125h4v1h-4zM40 125h1v1h-1zM54 125h1v1h-1zM69 125h1v1h-1zM81 125h5v1h-5zM89 125h3v1h-3zM94 125h2v1h-2zM97 125h1v1h-1zM99 125h11v1h-11zM111 125h3v1h-3zM115 125h5v1h-5zM0 126h18v1h-18zM26 126h4v1h-4zM40 126h1v1h-1zM43 126h2v1h-2zM47 126h1v1h-1zM60 126h1v1h-1zM65 126h1v1h-1zM77 126h1v1h-1zM81 126h1v1h-1zM83 126h3v1h-3zM92 126h5v1h-5zM101 126h19v1h-19zM0 127h17v1h-17zM22 127h1v1h-1zM24 127h2v1h-2zM27 127h1v1h-1zM41 127h12v1h-12zM57 127h1v1h-1zM81 127h5v1h-5zM92 127h2v1h-2zM95 127h1v1h-1zM100 127h4v1h-4zM105 127h15v1h-15zM0 128h9v1h-9zM10 128h8v1h-8zM22 128h1v1h-1zM24 128h3v1h-3zM41 128h1v1h-1zM43 128h1v1h-1zM53 128h1v1h-1zM62 128h1v1h-1zM75 128h1v1h-1zM81 128h3v1h-3zM85 128h1v1h-1zM92 128h2v1h-2zM96 128h4v1h-4zM101 128h1v1h-1zM103 128h5v1h-5zM109 128h11v1h-11zM0 129h7v1h-7zM8 129h5v1h-5zM14 129h4v1h-4zM19 129h1v1h-1zM22 129h2v1h-2zM25 129h2v1h-2zM41 129h3v1h-3zM55 129h2v1h-2zM68 129h1v1h-1zM73 129h1v1h-1zM80 129h1v1h-1zM82 129h2v1h-2zM88 129h1v1h-1zM92 129h1v1h-1zM94 129h3v1h-3zM98 129h15v1h-15zM114 129h3v1h-3zM118 129h2v1h-2zM0 130h22v1h-22zM23 130h5v1h-5zM41 130h5v1h-5zM60 130h4v1h-4zM66 130h1v1h-1zM80 130h2v1h-2zM83 130h2v1h-2zM86 130h4v1h-4zM95 130h4v1h-4zM100 130h11v1h-11zM112 130h8v1h-8zM0 131h25v1h-25zM26 131h3v1h-3zM41 131h2v1h-2zM44 131h3v1h-3zM65 131h3v1h-3zM69 131h1v1h-1zM71 131h1v1h-1zM80 131h1v1h-1zM82 131h6v1h-6zM100 131h7v1h-7zM108 131h12v1h-12zM0 132h23v1h-23zM24 132h6v1h-6zM39 132h4v1h-4zM44 132h3v1h-3zM71 132h12v1h-12zM98 132h4v1h-4zM103 132h2v1h-2zM106 132h14v1h-14zM0 133h5v1h-5zM6 133h3v1h-3zM10 133h3v1h-3zM14 133h2v1h-2zM17 133h14v1h-14zM33 133h1v1h-1zM38 133h6v1h-6zM45 133h2v1h-2zM97 133h23v1h-23z"/>
<text x="430" y="30" fill="#c9d1d9">
<tspan x="430" y="30">safaraliyevelmir</tspan> -----------------------------
<tspan x="430" y="50" fill="#ffa657">Role</tspan><tspan fill="#616e7f">: </tspan><tspan fill="#a5d6ff">Software Engineer</tspan>
<tspan x="430" y="70" fill="#ffa657">Location</tspan><tspan fill="#616e7f">: </tspan><tspan fill="#a5d6ff">Baku, Azerbaijan</tspan>
<tspan x="430" y="90" fill="#ffa657">Languages</tspan><tspan fill="#616e7f">: </tspan><tspan fill="#a5d6ff">Python, JavaScript, HTML, CSS</tspan>
<tspan x="430" y="110" fill="#ffa657">Databases</tspan><tspan fill="#616e7f">: </tspan><tspan fill="#a5d6ff">PostgreSQL, MongoDB</tspan>
<tspan x="430" y="130" fill="#ffa657">Cloud</tspan><tspan fill="#616e7f">: </tspan><tspan fill="#a5d6ff">AWS</tspan>
<tspan x="430" y="150" fill="#ffa657">Interests</tspan><tspan fill="#616e7f">: </tspan><tspan fill="#a5d6ff">Shopify, Trading, Machine Learning, Minecraft</tspan>
<tspan x="430" y="170" fill="#ffa657">LinkedIn</tspan><tspan fill="#616e7f">: </tspan><tspan fill="#a5d6ff">linkedin.com/in/elmirsafaraliyev</tspan>
<tspan x="430" y="200">GitHub Stats</tspan> -----------------------------
<tspan x="430" y="220" fill="#ffa657">Repos</tspan><tspan fill="#616e7f">: </tspan><tspan fill="#a5d6ff">15</tspan><tspan fill="#616e7f"> | </tspan><tspan fill="#ffa657">Contributed</tspan><tspan fill="#616e7f">: </tspan><tspan fill="#a5d6ff">2</tspan>
<tspan x="430" y="240" fill="#ffa657">Stars</tspan><tspan fill="#616e7f">: </tspan><tspan fill="#a5d6ff">1</tspan><tspan fill="#616e7f"> | </tspan><tspan fill="#ffa657">Followers</tspan><tspan fill="#616e7f">: </tspan><tspan fill="#a5d6ff">9</tspan>
<tspan x="430" y="260" fill="#ffa657">Commits</tspan><tspan fill="#616e7f">: </tspan><tspan fill="#a5d6ff">188</tspan>
<tspan x="430" y="280" fill="#ffa657">Lines of Code</tspan><tspan fill="#616e7f">: </tspan><tspan fill="#3fb950">3,212,692++</tspan><tspan fill="#616e7f">, </tspan><tspan fill="#f85149">2,201,169--</tspan>
</text>
</svg>
