<svg xmlns="http://www.w3.org/2000/svg" font-family="Consolas,monospace" width="920px" height="490px" font-size="14px">
<rect width="920px" height="490px" fill="#ffffff" rx="10"/>
<path transform="translate(15,20) scale(3.250)" fill="#24292f" d="M51 20h8v1h-8zM60 20h1v1h-1zM49 21h2v1h-2zM52 21h1v1h-1zM54 21h1v1h-1zM56 21h1v1h-1zM58 21h2v1h-2zM61 21h1v1h-1zM47 22h1v1h-1zM49 22h9v1h-9zM59 22h5v1h-5zM45 23h1v1h-1zM47 23h17v1h-17zM65 23h1v1h-1zM44 24h15v1h-15zM60 24h2v1h-2zM63 24h3v1h-3zM42 25h26v1h-26zM41 26h1v1h-1zM43 26h18v1h-18zM62 26h2v1h-2zM65 26h1v1h-1zM40 27h28v1h-28zM40 28h8v1h-8zM49 28h1v1h-1zM51 28h1v1h-1zM53 28h1v1h-1zM55 28h1v1h-1zM57 28h5v1h-5zM63 28h3v1h-3zM67 28h1v1h-1zM39 29h6v1h-6zM61 29h9v1h-9zM39 30h3v1h-3zM43 30h1v1h-1zM45 30h1v1h-1zM64 30h3v1h-3zM68 30h1v1h-1zM70 30h1v1h-1zM38 31h2v1h-2zM41 31h2v1h-2zM65 31h5v1h-5zM37 32h5v1h-5zM67 32h2v1h-2zM37 33h1v1h-1zM39 33h2v1h-2zM67 33h3v1h-3zM36 34h5v1h-5zM42 34h1v1h-1zM67 34h2v1h-2zM37 35h2v1h-2zM40 35h1v1h-1zM68 35h2v1h-2zM36 36h1v1h-1zM38 36h3v1h-3zM68 36h1v1h-1zM37 37h2v1h-2zM40 37h2v1h-2zM44 37h1v1h-1zM68 37h2v1h-2zM37 38h4v1h-4zM68 38h1v1h-1zM38 39h1v1h-1zM40 39h2v1h-2zM44 39h1v1h-1zM47 39h1v1h-1zM49 39h2v1h-2zM52 39h2v1h-2zM59 39h6v1h-6zM66 39h1v1h-1zM68 39h2v1h-2zM37 40h4v1h-4zM45 40h1v1h-1zM47 40h2v1h-2zM50 40h3v1h-3zM54 40h2v1h-2zM58 40h1v1h-1zM60 40h1v1h-1zM62 40h1v1h-1zM65 40h1v1h-1zM68 40h1v1h-1zM38 41h3v1h-3zM43 41h1v1h-1zM46 41h1v1h-1zM48 41h1v1h-1zM50 41h1v1h-1zM52 41h2v1h-2zM59 41h2v1h-2zM62 41h1v1h-1zM68 41h1v1h-1zM38 42h3v1h-3zM46 42h1v1h-1zM49 42h3v1h-3zM53 42h2v1h-2zM59 42h1v1h-1zM61 42h2v1h-2zM64 42h1v1h-1zM66 42h1v1h-1zM38 43h2v1h-2zM41 43h1v1h-1zM44 43h1v1h-1zM46 43h1v1h-1zM48 43h2v1h-2zM51 43h1v1h-1zM53 43h1v1h-1zM55 43h1v1h-1zM59 43h1v1h-1zM61 43h2v1h-2zM64 43h1v1h-1zM68 43h1v1h-1zM38 44h3v1h-3zM43 44h1v1h-1zM45 44h1v1h-1zM47 44h1v1h-1zM49 44h1v1h-1zM51 44h1v1h-1zM53 44h1v1h-1zM55 44h1v1h-1zM60 44h1v1h-1zM39 45h1v1h-1zM41 45h1v1h-1zM50 45h1v1h-1zM55 45h1v1h-1zM59 45h1v1h-1zM62 45h1v1h-1zM65 45h1v1h-1zM68 45h1v1h-1zM39 46h2v1h-2zM43 46h1v1h-1zM45 46h1v1h-1zM47 46h1v1h-1zM49 46h1v1h-1zM55 46h1v1h-1zM41 47h1v1h-1zM54 47h1v1h-1zM68 47h1v1h-1zM38 49h1v1h-1zM49 49h1v1h-1zM51 49h1v1h-1zM53 49h1v1h-1zM65 49h1v1h-1zM40 50h1v1h-1zM52 50h1v1h-1zM54 50h1v1h-1zM56 50h4v1h-4zM42 51h1v1h-1zM52 51h1v1h-1zM55 51h1v1h-1zM57 51h1v1h-1zM59 51h1v1h-1zM39 52h1v1h-1zM45 52h1v1h-1zM50 52h1v1h-1zM54 52h1v1h-1zM56 52h2v1h-2zM59 52h1v1h-1zM62 52h1v1h-1zM64 52h1v1h-1zM43 53h1v1h-1zM48 53h1v1h-1zM53 53h1v1h-1zM55 53h1v1h-1zM57 53h2v1h-2zM60 53h1v1h-1zM67 53h1v1h-1zM43 54h1v1h-1zM51 54h1v1h-1zM53 54h1v1h-1zM55 54h1v1h-1zM61 54h2v1h-2zM45 55h1v1h-1zM48 55h1v1h-1zM51 55h2v1h-2zM54 55h1v1h-1zM56 55h4v1h-4zM61 55h1v1h-1zM63 55h1v1h-1zM66 55h1v1h-1zM42 56h2v1h-2zM51 56h3v1h-3zM62 56h1v1h-1zM45 57h1v1h-1zM47 57h1v1h-1zM50 57h1v1h-1zM55 57h1v1h-1zM57 57h1v1h-1zM65 57h2v1h-2zM44 58h1v1h-1zM48 58h1v1h-1zM51 58h1v1h-1zM54 58h1v1h-1zM56 58h4v1h-4zM61 58h1v1h-1zM66 58h1v1h-1zM46 59h1v1h-1zM49 59h1v1h-1zM53 59h1v1h-1zM55 59h1v1h-1zM57 59h1v1h-1zM64 59h1v1h-1zM44 60h1v1h-1zM47 60h1v1h-1zM51 60h1v1h-1zM65 60h1v1h-1zM45 61h2v1h-2zM48 61h1v1h-1zM50 61h1v1h-1zM63 61h1v1h-1zM65 61h1v1h-1zM46 62h1v1h-1zM48 62h1v1h-1zM51 62h1v1h-1zM55 62h1v1h-1zM59 62h1v1h-1zM61 62h1v1h-1zM63 62h1v1h-1zM47 63h4v1h-4zM52 63h3v1h-3zM56 63h2v1h-2zM59 63h2v1h-2zM62 63h2v1h-2zM48 64h1v1h-1zM50 64h13v1h-13zM49 65h13v1h-13zM47 66h1v1h-1zM50 66h1v1h-1zM52 66h8v1h-8zM61 66h1v1h-1zM48 67h1v1h-1zM51 67h1v1h-1zM53 67h2v1h-2zM56 67h2v1h-2zM59 67h2v1h-2zM49 68h1v1h-1zM52 68h1v1h-1zM54 68h2v1h-2zM57 68h2v1h-2zM47 69h1v1h-1zM55 69h1v1h-1zM57 69h1v1h-1zM59 69h1v1h-1zM39 70h3v1h-3zM49 70h1v1h-1zM51 70h1v1h-1zM54 70h1v1h-1zM56 70h1v1h-1zM58 70h1v1h-1zM39 71h3v1h-3zM46 71h1v1h-1zM52 71h1v1h-1zM55 71h1v1h-1zM57 71h1v1h-1zM39 72h5v1h-5zM48 72h1v1h-1zM50 72h1v1h-1zM53 72h1v1h-1zM55 72h1v1h-1zM57 72h1v1h-1zM63 72h1v1h-1zM29 73h1v1h-1zM38 73h7v1h-7zM47 73h1v1h-1zM51 73h1v1h-1zM54 73h1v1h-1zM56 73h1v1h-1zM64 73h2v1h-2zM24 74h1v1h-1zM37 74h1v1h-1zM39 74h7v1h-7zM49 74h1v1h-1zM52 74h1v1h-1zM54 74h1v1h-1zM58 74h1v1h-1zM63 74h3v1h-3zM22 75h1v1h-1zM36 75h5v1h-5zM42 75h5v1h-5zM48 75h1v1h-1zM50 75h1v1h-1zM52 75h1v1h-1zM55 75h1v1h-1zM64 75h3v1h-3zM34 76h5v1h-5zM40 76h8v1h-8zM50 76h1v1h-1zM53 76h1v1h-1zM56 76h1v1h-1zM63 76h4v1h-4zM20 77h1v1h-1zM33 77h2v1h-2zM36 77h14v1h-14zM51 77h1v1h-1zM54 77h1v1h-1zM64 77h3v1h-3zM31 78h6v1h-6zM38 78h6v1h-6zM45 78h5v1h-5zM52 78h1v1h-1zM56 78h1v1h-1zM62 78h1v1h-1zM64 78h4v1h-4zM29 79h1v1h-1zM31 79h2v1h-2zM34 79h7v1h-7zM42 79h10v1h-10zM55 79h1v1h-1zM60 79h1v1h-1zM63 79h7v1h-7zM18 80h1v1h-1zM27 80h1v1h-1zM29 80h6v1h-6zM36 80h2v1h-2zM39 80h9v1h-9zM49 80h4v1h-4zM63 80h3v1h-3zM67 80h6v1h-6zM26 81h1v1h-1zM28 81h3v1h-3zM32 81h12v1h-12zM45 81h10v1h-10zM57 81h1v1h-1zM63 81h11v1h-11zM25 82h4v1h-4zM30 82h3v1h-3zM34 82h2v1h-2zM37 82h2v1h-2zM40 82h2v1h-2zM43 82h13v1h-13zM63 82h2v1h-2zM66 82h2v1h-2zM69 82h2v1h-2zM72 82h4v1h-4zM15 83h1v1h-1zM23 83h1v1h-1zM25 83h2v1h-2zM28 83h22v1h-22zM51 83h2v1h-2zM54 83h4v1h-4zM62 83h17v1h-17zM21 84h1v1h-1zM23 84h7v1h-7zM31 84h2v1h-2zM34 84h3v1h-3zM38 84h2v1h-2zM41 84h4v1h-4zM46 84h2v1h-2zM49 84h10v1h-10zM63 84h18v1h-18zM20 85h1v1h-1zM22 85h2v1h-2zM25 85h1v1h-1zM27 85h1v1h-1zM29 85h6v1h-6zM36 85h7v1h-7zM44 85h13v1h-13zM58 85h3v1h-3zM62 85h6v1h-6zM69 85h3v1h-3zM73 85h4v1h-4zM78 85h5v1h-5zM19 86h12v1h-12zM32 86h7v1h-7zM40 86h15v1h-15zM56 86h23v1h-23zM80 86h5v1h-5zM13 87h1v1h-1zM18 87h3v1h-3zM22 87h2v1h-2zM25 87h2v1h-2zM28 87h5v1h-5zM34 87h3v1h-3zM38 87h3v1h-3zM42 87h7v1h-7zM50 87h2v1h-2zM53 87h18v1h-18zM72 87h9v1h-9zM82 87h4v1h-4zM17 88h12v1h-12zM30 88h34v1h-34zM65 88h2v1h-2zM68 88h6v1h-6zM75 88h3v1h-3zM79 88h5v1h-5zM85 88h2v1h-2zM17 89h1v1h-1zM19 89h1v1h-1zM21 89h1v1h-1zM23 89h2v1h-2zM26 89h5v1h-5zM32 89h2v1h-2zM35 89h6v1h-6zM42 89h2v1h-2zM45 89h17v1h-17zM63 89h6v1h-6zM70 89h2v1h-2zM73 89h9v1h-9zM83 89h5v1h-5zM17 90h20v1h-20zM38 90h1v1h-1zM40 90h26v1h-26zM67 90h9v1h-9zM77 90h3v1h-3zM81 90h5v1h-5zM87 90h1v1h-1zM16 91h4v1h-4zM21 91h2v1h-2zM24 91h2v1h-2zM27 91h2v1h-2zM30 91h5v1h-5zM36 91h7v1h-7zM44 91h2v1h-2zM47 91h5v1h-5zM53 91h2v1h-2zM56 91h3v1h-3zM60 91h4v1h-4zM65 91h5v1h-5zM71 91h3v1h-3zM75 91h14v1h-14zM11 92h1v1h-1zM16 92h2v1h-2zM19 92h14v1h-14zM34 92h7v1h-7zM42 92h7v1h-7zM50 92h18v1h-18zM69 92h9v1h-9zM79 92h4v1h-4zM84 92h5v1h-5zM16 93h6v1h-6zM23 93h4v1h-4zM28 93h11v1h-11zM40 93h5v1h-5zM46 93h16v1h-16zM63 93h9v1h-9zM73 93h2v1h-2zM76 93h5v1h-5zM82 93h4v1h-4zM87 93h3v1h-3zM15 94h2v1h-2zM18 94h2v1h-2zM21 94h16v1h-16zM38 94h5v1h-5zM44 94h4v1h-4zM49 94h3v1h-3zM53 94h3v1h-3zM57 94h2v1h-2zM60 94h6v1h-6zM67 94h3v1h-3zM71 94h17v1h-17zM89 94h1v1h-1zM16 95h8v1h-8zM25 95h4v1h-4zM30 95h4v1h-4zM35 95h15v1h-15zM51 95h13v1h-13zM65 95h3v1h-3zM69 95h4v1h-4zM74 95h2v1h-2zM77 95h1v1h-1zM79 95h2v1h-2zM82 95h8v1h-8zM15 96h3v1h-3zM19 96h3v1h-3zM23 96h17v1h-17zM41 96h2v1h-2zM44 96h2v1h-2zM47 96h15v1h-15zM63 96h8v1h-8zM72 96h12v1h-12zM85 96h3v1h-3zM89 96h2v1h-2zM16 97h15v1h-15zM32 97h16v1h-16zM49 97h4v1h-4zM54 97h2v1h-2zM57 97h2v1h-2zM60 97h8v1h-8zM69 97h5v1h-5zM75 97h3v1h-3zM79 97h3v1h-3zM83 97h9v1h-9zM10 98h1v1h-1zM15 98h2v1h-2zM18 98h2v1h-2zM21 98h3v1h-3zM25 98h2v1h-2zM28 98h7v1h-7zM36 98h3v1h-3zM40 98h2v1h-2zM43 98h2v1h-2zM46 98h5v1h-5zM52 98h13v1h-13zM66 98h6v1h-6zM73 98h3v1h-3zM77 98h10v1h-10zM88 98h2v1h-2zM91 98h1v1h-1zM16 99h6v1h-6zM23 99h26v1h-26zM50 99h13v1h-13zM64 99h5v1h-5zM70 99h10v1h-10zM81 99h11v1h-11zM15 100h11v1h-11zM27 100h10v1h-10zM38 100h5v1h-5zM44 100h2v1h-2zM47 100h7v1h-7zM55 100h5v1h-5zM61 100h6v1h-6zM68 100h4v1h-4zM73 100h2v1h-2zM76 100h2v1h-2zM79 100h5v1h-5zM85 100h3v1h-3zM89 100h3v1h-3zM16 101h2v1h-2zM19 101h5v1h-5zM25 101h4v1h-4zM30 101h11v1h-11zM42 101h10v1h-10zM53 101h5v1h-5zM59 101h31v1h-31zM91 101h2v1h-2zM15 102h5v1h-5zM21 102h24v1h-24zM46 102h2v1h-2zM49 102h16v1h-16zM66 102h3v1h-3zM70 102h2v1h-2zM73 102h3v1h-3zM77 102h3v1h-3zM81 102h5v1h-5zM87 102h5v1h-5zM16 103h11v1h-11zM28 103h22v1h-22zM51 103h3v1h-3zM55 103h19v1h-19zM75 103h3v1h-3zM79 103h14v1h-14zM11 104h1v1h-1zM15 104h3v1h-3zM19 104h3v1h-3zM23 104h8v1h-8zM32 104h5v1h-5zM38 104h3v1h-3zM42 104h4v1h-4zM47 104h15v1h-15zM63 104h3v1h-3zM67 104h3v1h-3zM71 104h12v1h-12zM84 104h4v1h-4zM89 104h2v1h-2zM92 104h2v1h-2zM16 105h9v1h-9zM26 105h3v1h-3zM30 105h14v1h-14zM45 105h6v1h-6zM52 105h3v1h-3zM56 105h2v1h-2zM59 105h9v1h-9zM69 105h4v1h-4zM74 105h6v1h-6zM81 105h12v1h-12zM15 106h4v1h-4zM20 106h3v1h-3zM24 106h24v1h-24zM49 106h15v1h-15zM65 106h11v1h-11zM77 106h12v1h-12zM90 106h4v1h-4zM16 107h38v1h-38zM55 107h15v1h-15zM71 107h3v1h-3zM75 107h4v1h-4zM80 107h7v1h-7zM88 107h6v1h-6zM15 108h2v1h-2zM18 108h3v1h-3zM22 108h11v1h-11zM34 108h16v1h-16zM51 108h6v1h-6zM58 108h10v1h-10zM69 108h22v1h-22zM92 108h2v1h-2zM10 109h1v1h-1zM16 109h9v1h-9zM26 109h2v1h-2zM29 109h16v1h-16zM46 109h2v1h-2zM49 109h6v1h-6zM56 109h7v1h-7zM64 109h8v1h-8zM73 109h4v1h-4zM78 109h17v1h-17zM15 110h3v1h-3zM19 110h23v1h-23zM43 110h9v1h-9zM53 110h8v1h-8zM62 110h23v1h-23zM86 110h2v1h-2zM89 110h3v1h-3zM93 110h3v1h-3zM16 111h4v1h-4zM21 111h2v1h-2zM24 111h11v1h-11zM36 111h23v1h-23zM60 111h6v1h-6zM67 111h8v1h-8zM76 111h4v1h-4zM81 111h9v1h-9zM91 111h4v1h-4zM16 112h12v1h-12zM29 112h2v1h-2zM32 112h24v1h-24zM57 112h13v1h-13zM71 112h7v1h-7zM79 112h18v1h-18zM15 113h2v1h-2zM18 113h2v1h-2zM21 113h28v1h-28zM50 113h4v1h-4zM55 113h18v1h-18zM74 113h13v1h-13zM88 113h4v1h-4zM93 113h1v1h-1zM95 113h1v1h-1zM16 114h7v1h-7zM24 114h2v1h-2zM27 114h5v1h-5zM33 114h19v1h-19zM53 114h15v1h-15zM69 114h20v1h-20zM95 114h2v1h-2zM9 115h1v1h-1zM16 115h2v1h-2zM19 115h2v1h-2zM22 115h15v1h-15zM38 115h20v1h-20zM59 115h5v1h-5zM65 115h11v1h-11zM77 115h8v1h-8zM86 115h2v1h-2zM95 115h2v1h-2zM16 116h15v1h-15zM32 116h2v1h-2zM35 116h39v1h-39zM75 116h5v1h-5zM81 116h6v1h-6zM92 116h5v1h-5zM16 117h1v1h-1zM18 117h4v1h-4zM23 117h2v1h-2zM26 117h2v1h-2zM29 117h15v1h-15zM45 117h4v1h-4zM50 117h11v1h-11zM62 117h8v1h-8zM71 117h15v1h-15zM91 117h4v1h-4zM96 117h1v1h-1zM16 118h3v1h-3zM20 118h15v1h-15zM36 118h2v1h-2zM39 118h16v1h-16zM56 118h2v1h-2zM59 118h7v1h-7zM67 118h18v1h-18zM90 118h3v1h-3zM12 119h1v1h-1zM17 119h4v1h-4zM22 119h2v1h-2zM25 119h2v1h-2zM28 119h2v1h-2zM31 119h2v1h-2zM34 119h43v1h-43zM78 119h7v1h-7zM89 119h2v1h-2zM9 120h1v1h-1zM16 120h3v1h-3zM20 120h49v1h-49zM70 120h3v1h-3zM74 120h10v1h-10zM88 120h2v1h-2zM97 120h1v1h-1zM99 120h1v1h-1zM103 120h1v1h-1zM107 120h1v1h-1zM17 121h20v1h-20zM38 121h16v1h-16zM55 121h4v1h-4zM60 121h3v1h-3zM64 121h20v1h-20zM87 121h2v1h-2zM111 121h1v1h-1zM16 122h8v1h-8zM25 122h2v1h-2zM28 122h2v1h-2zM31 122h2v1h-2zM34 122h11v1h-11zM46 122h21v1h-21zM68 122h8v1h-8zM77 122h3v1h-3zM81 122h2v1h-2zM87 122h1v1h-1zM94 122h1v1h-1zM17 123h5v1h-5zM23 123h13v1h-13zM37 123h2v1h-2zM40 123h17v1h-17zM58 123h3v1h-3zM62 123h11v1h-11zM74 123h9v1h-9zM86 123h1v1h-1zM92 123h1v1h-1zM8 124h1v1h-1zM16 124h2v1h-2zM19 124h9v1h-9zM29 124h2v1h-2zM32 124h2v1h-2zM35 124h2v1h-2zM38 124h33v1h-33zM72 124h10v1h-10zM91 124h1v1h-1zM99 124h1v1h-1zM101 124h1v1h-1zM106 124h1v1h-1zM13 125h1v1h-1zM17 125h4v1h-4zM22 125h3v1h-3zM26 125h4v1h-4zM31 125h1v1h-1zM41 125h13v1h-13zM55 125h14v1h-14zM70 125h11v1h-11zM96 125h1v1h-1zM98 125h1v1h-1zM110 125h1v1h-1zM114 125h1v1h-1zM18 126h8v1h-8zM41 126h2v1h-2zM45 126h2v1h-2zM48 126h12v1h-12zM61 126h4v1h-4zM66 126h11v1h-11zM78 126h3v1h-3zM82 126h1v1h-1zM17 127h5v1h-5zM23 127h1v1h-1zM26 127h1v1h-1zM53 127h4v1h-4zM58 127h23v1h-23zM94 127h1v1h-1zM104 127h1v1h-1zM9 128h1v1h-1zM18 128h4v1h-4zM23 128h1v1h-1zM42 128h1v1h-1zM54 128h8v1h-8zM63 128h12v1h-12zM76 128h5v1h-5zM84 128h1v1h-1zM100 128h1v1h-1zM102 128h1v1h-1zM108 128h1v1h-1zM7 129h1v1h-1zM13 129h1v1h-1zM18 129h1v1h-1zM20 129h2v1h-2zM24 129h1v1h-1zM57 129h11v1h-11zM69 129h4v1h-4zM74 129h6v1h-6zM81 129h1v1h-1zM97 129h1v1h-1zM113 129h1v1h-1zM117 129h1v1h-1zM22 130h1v1h-1zM64 130h2v1h-2zM67 130h13v1h-13zM82 130h1v1h-1zM111 130h1v1h-1zM25 131h1v1h-1zM43 131h1v1h-1zM68 131h1v1h-1zM70 131h1v1h-1zM72 131h8v1h-8zM81 131h1v1h-1zM107 131h1v1h-1zM23 132h1v1h-1zM43 132h1v1h-1zM102 132h1v1h-1zM105 132h1v1h-1zM5 133h1v1h-1zM9 133h1v1h-1zM13 133h1v1h-1zM16 133h1v1h-1zM44 133h1v1h-1z"/>
<text x="430" y="30" fill="#24292f">
<tspan x="430" y="30">safaraliyevelmir</tspan> -----------------------------
<tspan x="430" y="50" fill="#953800">Role</tspan><tspan fill="#6e7781">: </tspan><tspan fill="#0a3069">Software Engineer</tspan>
<tspan x="430" y="70" fill="#953800">Location</tspan><tspan fill="#6e7781">: </tspan><tspan fill="#0a3069">Baku, Azerbaijan</tspan>
<tspan x="430" y="90" fill="#953800">Languages</tspan><tspan fill="#6e7781">: </tspan><tspan fill="#0a3069">Python, JavaScript, HTML, CSS</tspan>
<tspan x="430" y="110" fill="#953800">Databases</tspan><tspan fill="#6e7781">: </tspan><tspan fill="#0a3069">PostgreSQL, MongoDB</tspan>
<tspan x="430" y="130" fill="#953800">Cloud</tspan><tspan fill="#6e7781">: </tspan><tspan fill="#0a3069">AWS</tspan>
<tspan x="430" y="150" fill="#953800">Interests</tspan><tspan fill="#6e7781">: </tspan><tspan fill="#0a3069">Shopify, Trading, Machine Learning, Minecraft</tspan>
<tspan x="430" y="170" fill="#953800">LinkedIn</tspan><tspan fill="#6e7781">: </tspan><tspan fill="#0a3069">linkedin.com/in/elmirsafaraliyev</tspan>
<tspan x="430" y="200">GitHub Stats</tspan> -----------------------------
<tspan x="430" y="220" fill="#953800">Repos</tspan><tspan fill="#6e7781">: </tspan><tspan fill="#0a3069">15</tspan><tspan fill="#6e7781"> | </tspan><tspan fill="#953800">Contributed</tspan><tspan fill="#6e7781">: </tspan><tspan fill="#0a3069">2</tspan>
<tspan x="430" y="240" fill="#953800">Stars</tspan><tspan fill="#6e7781">: </tspan><tspan fill="#0a3069">67</tspan><tspan fill="#6e7781"> | </tspan><tspan fill="#953800">Followers</tspan><tspan fill="#6e7781">: </tspan><tspan fill="#0a3069">9</tspan>
<tspan x="430" y="260" fill="#953800">Commits</tspan><tspan fill="#6e7781">: </tspan><tspan fill="#0a3069">187</tspan>
<tspan x="430" y="280" fill="#953800">Lines of Code</tspan><tspan fill="#6e7781">: </tspan><tspan fill="#1a7f37">3,211,383++</tspan><tspan fill="#6e7781">, </tspan><tspan fill="#cf222e">2,200,636--</tspan>
</text>
</svg>